<svg width="557" height="555" xmlns="http://www.w3.org/2000/svg" xmlns:xlink="http://www.w3.org/1999/xlink">
 <g>
  <title>background</title>
  <rect fill="none" id="canvas_background" height="557" width="559" y="-1" x="-1"/>
 </g>
 <g>
  <title>Layer 1</title>
  <path id="svg_1" d="m428.122591,548.978672l-421.417,0l0,-148.647l395.509,0l0,-375.556c0,-11.15 8.678,-19.533 19.409,-19.533l109.45,0c10.731,0 19.452,8.76 19.452,19.533l0,401.504c0.001,67.784 -54.788,122.699 -122.403,122.699" fill="#2352A2"/>
  <g id="svg_2" opacity="0.2">
   <g id="svg_3">
    <defs transform="translate(0,2.000065565109253) translate(0,-2.000065565109253) translate(0,-2.000065565109253) translate(0,-2.000065565109253) translate(0,-2.000065565109253) translate(0,-2.000065565109253) translate(0,-2.000065565109253) translate(-2.000065565109253,0) translate(-2.000065565109253,0) translate(-2.000065565109253,0) translate(-2.000065565109253,0) translate(-2.000065565109253,0) translate(-2.000065565109253,0) translate(-2.000065565109253,0) translate(-2.000065565109253,0) translate(-2.000065565109253,0) translate(-2.000065565109253,0) translate(-2.000065565109253,0) translate(-2.000065565109253,0) translate(-2.000065565109253,0) translate(-2.000065565109253,0) translate(-2.000065565109253,0) translate(-2.000065565109253,0) translate(-2.000065565109253,0) translate(-2.000065565109253,0) translate(-2.000065565109253,0) translate(-2.000065565109253,0) translate(-2.000065565109253,0) translate(-2.000065565109253,0) translate(-2.000065565109253,0) translate(-2.000065565109253,0) translate(-2.000065565109253,0) translate(-2.000065565109253,0) translate(-2.000065565109253,0) translate(-2.000065565109253,0) translate(-2.000065565109253,0) translate(-2.000065565109253,0) translate(-2.000065565109253,0) translate(-2.000065565109253,0) translate(-2.000065565109253,0) translate(-2.000065565109253,0) translate(-2.000065565109253,0) translate(-2.000065565109253,0) translate(-2.000065565109253,0) translate(-2.000065565109253,0) translate(-2.000065565109253,0) translate(-2.000065565109253,0) translate(-2.000065565109253,0) translate(-2.000065565109253,0) translate(-2.000065565109253,0) translate(-2.000065565109253,0) translate(-2.000065565109253,0) translate(-2.000065565109253,0) translate(-2.000065565109253,0) translate(-2.000065565109253,0) translate(-2.000065565109253,0) translate(-2.000065565109253,0) translate(-2.000065565109253,0) translate(-2.000065565109253,0) ">
     <rect height="20.876" width="148.27" y="15.2" x="506.261" id="SVGID_1_"/>
     <linearGradient y2="0.707703" x2="0.707633" y1="0.419904" x1="0.419833" id="SVGID_8_">
      <stop stop-color="#333333" offset="0"/>
      <stop stop-color="#0D0D0D" offset="1"/>
     </linearGradient>
     <linearGradient y2="0.707695" x2="0.707615" y1="0.419815" x1="0.419735" id="SVGID_9_">
      <stop stop-color="#1B2D7D" offset="0"/>
      <stop stop-color="#2375BF" offset="1"/>
     </linearGradient>
     <linearGradient y2="0.700137" x2="0.700078" y1="0.41234" x1="0.412279" id="SVGID_17_">
      <stop stop-color="#333333" offset="0"/>
      <stop stop-color="#0D0D0D" offset="1"/>
     </linearGradient>
     <linearGradient y2="0.69999" x2="0.699988" y1="0.412271" x1="0.41224" id="SVGID_18_">
      <stop stop-color="#1B2D7D" offset="0"/>
      <stop stop-color="#2375BF" offset="1"/>
     </linearGradient>
    </defs>
    <clipPath transform="translate(0,2.000065565109253) translate(0,-2.000065565109253) translate(0,-2.000065565109253) translate(0,-2.000065565109253) translate(0,-2.000065565109253) translate(0,-2.000065565109253) translate(0,-2.000065565109253) translate(-2.000065565109253,0) translate(-2.000065565109253,0) translate(-2.000065565109253,0) translate(-2.000065565109253,0) translate(-2.000065565109253,0) translate(-2.000065565109253,0) translate(-2.000065565109253,0) translate(-2.000065565109253,0) translate(-2.000065565109253,0) translate(-2.000065565109253,0) translate(-2.000065565109253,0) translate(-2.000065565109253,0) translate(-2.000065565109253,0) translate(-2.000065565109253,0) translate(-2.000065565109253,0) translate(-2.000065565109253,0) translate(-2.000065565109253,0) translate(-2.000065565109253,0) translate(-2.000065565109253,0) translate(-2.000065565109253,0) translate(-2.000065565109253,0) translate(-2.000065565109253,0) translate(-2.000065565109253,0) translate(-2.000065565109253,0) translate(-2.000065565109253,0) translate(-2.000065565109253,0) translate(-2.000065565109253,0) translate(-2.000065565109253,0) translate(-2.000065565109253,0) translate(-2.000065565109253,0) translate(-2.000065565109253,0) translate(-2.000065565109253,0) translate(-2.000065565109253,0) translate(-2.000065565109253,0) translate(-2.000065565109253,0) translate(-2.000065565109253,0) translate(-2.000065565109253,0) translate(-2.000065565109253,0) translate(-2.000065565109253,0) translate(-2.000065565109253,0) translate(-2.000065565109253,0) translate(-2.000065565109253,0) translate(-2.000065565109253,0) translate(-2.000065565109253,0) translate(-2.000065565109253,0) translate(-2.000065565109253,0) translate(-2.000065565109253,0) translate(-2.000065565109253,0) translate(-2.000065565109253,0) translate(-2.000065565109253,0) translate(-2.000065565109253,0) translate(-2.000065565109253,0) " id="SVGID_2_">
     <use x="-104.003409" y="-10.000328" id="svg_4" xlink:href="#SVGID_1_"/>
    </clipPath>
    <path id="svg_5" d="m531.285591,5.199672l-109.829,0c-10.563,0 -19.199,8.678 -19.199,19.284l0,1.593c0,-10.606 8.636,-19.283 19.199,-19.283l109.829,0c10.562,0 19.241,8.677 19.241,19.283l0,-1.593c0,-10.607 -8.678,-19.284 -19.241,-19.284" fill="#2352A2" clip-path="url(#SVGID_2_)"/>
   </g>
  </g>
  <g id="svg_6">
   <g id="svg_7">
    <defs transform="translate(0,2.000065565109253) translate(0,-2.000065565109253) translate(0,-2.000065565109253) translate(0,-2.000065565109253) translate(0,-2.000065565109253) translate(0,-2.000065565109253) translate(0,-2.000065565109253) translate(-2.000065565109253,0) translate(-2.000065565109253,0) translate(-2.000065565109253,0) translate(-2.000065565109253,0) translate(-2.000065565109253,0) translate(-2.000065565109253,0) translate(-2.000065565109253,0) translate(-2.000065565109253,0) translate(-2.000065565109253,0) translate(-2.000065565109253,0) translate(-2.000065565109253,0) translate(-2.000065565109253,0) translate(-2.000065565109253,0) translate(-2.000065565109253,0) translate(-2.000065565109253,0) translate(-2.000065565109253,0) translate(-2.000065565109253,0) translate(-2.000065565109253,0) translate(-2.000065565109253,0) translate(-2.000065565109253,0) translate(-2.000065565109253,0) translate(-2.000065565109253,0) translate(-2.000065565109253,0) translate(-2.000065565109253,0) translate(-2.000065565109253,0) translate(-2.000065565109253,0) translate(-2.000065565109253,0) translate(-2.000065565109253,0) translate(-2.000065565109253,0) translate(-2.000065565109253,0) translate(-2.000065565109253,0) translate(-2.000065565109253,0) translate(-2.000065565109253,0) translate(-2.000065565109253,0) translate(-2.000065565109253,0) translate(-2.000065565109253,0) translate(-2.000065565109253,0) translate(-2.000065565109253,0) translate(-2.000065565109253,0) translate(-2.000065565109253,0) translate(-2.000065565109253,0) translate(-2.000065565109253,0) translate(-2.000065565109253,0) translate(-2.000065565109253,0) translate(-2.000065565109253,0) translate(-2.000065565109253,0) translate(-2.000065565109253,0) translate(-2.000065565109253,0) translate(-2.000065565109253,0) translate(-2.000065565109253,0) translate(-2.000065565109253,0) translate(-2.000065565109253,0) ">
     <rect height="158.499" width="249.924" y="400.355" x="373.586" id="SVGID_3_"/>
    </defs>
    <clipPath transform="translate(0,2.000065565109253) translate(0,-2.000065565109253) translate(0,-2.000065565109253) translate(0,-2.000065565109253) translate(0,-2.000065565109253) translate(0,-2.000065565109253) translate(0,-2.000065565109253) translate(-2.000065565109253,0) translate(-2.000065565109253,0) translate(-2.000065565109253,0) translate(-2.000065565109253,0) translate(-2.000065565109253,0) translate(-2.000065565109253,0) translate(-2.000065565109253,0) translate(-2.000065565109253,0) translate(-2.000065565109253,0) translate(-2.000065565109253,0) translate(-2.000065565109253,0) translate(-2.000065565109253,0) translate(-2.000065565109253,0) translate(-2.000065565109253,0) translate(-2.000065565109253,0) translate(-2.000065565109253,0) translate(-2.000065565109253,0) translate(-2.000065565109253,0) translate(-2.000065565109253,0) translate(-2.000065565109253,0) translate(-2.000065565109253,0) translate(-2.000065565109253,0) translate(-2.000065565109253,0) translate(-2.000065565109253,0) translate(-2.000065565109253,0) translate(-2.000065565109253,0) translate(-2.000065565109253,0) translate(-2.000065565109253,0) translate(-2.000065565109253,0) translate(-2.000065565109253,0) translate(-2.000065565109253,0) translate(-2.000065565109253,0) translate(-2.000065565109253,0) translate(-2.000065565109253,0) translate(-2.000065565109253,0) translate(-2.000065565109253,0) translate(-2.000065565109253,0) translate(-2.000065565109253,0) translate(-2.000065565109253,0) translate(-2.000065565109253,0) translate(-2.000065565109253,0) translate(-2.000065565109253,0) translate(-2.000065565109253,0) translate(-2.000065565109253,0) translate(-2.000065565109253,0) translate(-2.000065565109253,0) translate(-2.000065565109253,0) translate(-2.000065565109253,0) translate(-2.000065565109253,0) translate(-2.000065565109253,0) translate(-2.000065565109253,0) translate(-2.000065565109253,0) " id="SVGID_4_">
     <use x="-104.003409" y="-10.000328" id="svg_8" xlink:href="#SVGID_3_"/>
    </clipPath>
    <g id="svg_9" clip-path="url(#SVGID_4_)">
     <defs transform="translate(0,2.000065565109253) translate(0,-2.000065565109253) translate(0,-2.000065565109253) translate(0,-2.000065565109253) translate(0,-2.000065565109253) translate(0,-2.000065565109253) translate(0,-2.000065565109253) translate(-2.000065565109253,0) translate(-2.000065565109253,0) translate(-2.000065565109253,0) translate(-2.000065565109253,0) translate(-2.000065565109253,0) translate(-2.000065565109253,0) translate(-2.000065565109253,0) translate(-2.000065565109253,0) translate(-2.000065565109253,0) translate(-2.000065565109253,0) translate(-2.000065565109253,0) translate(-2.000065565109253,0) translate(-2.000065565109253,0) translate(-2.000065565109253,0) translate(-2.000065565109253,0) translate(-2.000065565109253,0) translate(-2.000065565109253,0) translate(-2.000065565109253,0) translate(-2.000065565109253,0) translate(-2.000065565109253,0) translate(-2.000065565109253,0) translate(-2.000065565109253,0) translate(-2.000065565109253,0) translate(-2.000065565109253,0) translate(-2.000065565109253,0) translate(-2.000065565109253,0) translate(-2.000065565109253,0) translate(-2.000065565109253,0) translate(-2.000065565109253,0) translate(-2.000065565109253,0) translate(-2.000065565109253,0) translate(-2.000065565109253,0) translate(-2.000065565109253,0) translate(-2.000065565109253,0) translate(-2.000065565109253,0) translate(-2.000065565109253,0) translate(-2.000065565109253,0) translate(-2.000065565109253,0) translate(-2.000065565109253,0) translate(-2.000065565109253,0) translate(-2.000065565109253,0) translate(-2.000065565109253,0) translate(-2.000065565109253,0) translate(-2.000065565109253,0) translate(-2.000065565109253,0) translate(-2.000065565109253,0) translate(-2.000065565109253,0) translate(-2.000065565109253,0) translate(-2.000065565109253,0) translate(-2.000065565109253,0) translate(-2.000065565109253,0) translate(-2.000065565109253,0) ">
      <path d="m623.511,517.897l-117.25,-117.542l0,20.918c0,74.449 -58.979,135.065 -132.674,137.619l163.318,0c34.415,-1.339 65.227,-16.891 86.606,-40.995" id="SVGID_5_"/>
     </defs>
     <clipPath transform="translate(0,2.000065565109253) translate(0,-2.000065565109253) translate(0,-2.000065565109253) translate(0,-2.000065565109253) translate(0,-2.000065565109253) translate(0,-2.000065565109253) translate(0,-2.000065565109253) translate(-2.000065565109253,0) translate(-2.000065565109253,0) translate(-2.000065565109253,0) translate(-2.000065565109253,0) translate(-2.000065565109253,0) translate(-2.000065565109253,0) translate(-2.000065565109253,0) translate(-2.000065565109253,0) translate(-2.000065565109253,0) translate(-2.000065565109253,0) translate(-2.000065565109253,0) translate(-2.000065565109253,0) translate(-2.000065565109253,0) translate(-2.000065565109253,0) translate(-2.000065565109253,0) translate(-2.000065565109253,0) translate(-2.000065565109253,0) translate(-2.000065565109253,0) translate(-2.000065565109253,0) translate(-2.000065565109253,0) translate(-2.000065565109253,0) translate(-2.000065565109253,0) translate(-2.000065565109253,0) translate(-2.000065565109253,0) translate(-2.000065565109253,0) translate(-2.000065565109253,0) translate(-2.000065565109253,0) translate(-2.000065565109253,0) translate(-2.000065565109253,0) translate(-2.000065565109253,0) translate(-2.000065565109253,0) translate(-2.000065565109253,0) translate(-2.000065565109253,0) translate(-2.000065565109253,0) translate(-2.000065565109253,0) translate(-2.000065565109253,0) translate(-2.000065565109253,0) translate(-2.000065565109253,0) translate(-2.000065565109253,0) translate(-2.000065565109253,0) translate(-2.000065565109253,0) translate(-2.000065565109253,0) translate(-2.000065565109253,0) translate(-2.000065565109253,0) translate(-2.000065565109253,0) translate(-2.000065565109253,0) translate(-2.000065565109253,0) translate(-2.000065565109253,0) translate(-2.000065565109253,0) translate(-2.000065565109253,0) translate(-2.000065565109253,0) translate(-2.000065565109253,0) " id="SVGID_6_">
      <use x="-104.003409" y="-10.000328" id="svg_10" xlink:href="#SVGID_5_"/>
     </clipPath>
     <defs transform="translate(0,2.000065565109253) translate(0,-2.000065565109253) translate(0,-2.000065565109253) translate(0,-2.000065565109253) translate(0,-2.000065565109253) translate(0,-2.000065565109253) translate(0,-2.000065565109253) translate(-2.000065565109253,0) translate(-2.000065565109253,0) translate(-2.000065565109253,0) translate(-2.000065565109253,0) translate(-2.000065565109253,0) translate(-2.000065565109253,0) translate(-2.000065565109253,0) translate(-2.000065565109253,0) translate(-2.000065565109253,0) translate(-2.000065565109253,0) translate(-2.000065565109253,0) translate(-2.000065565109253,0) translate(-2.000065565109253,0) translate(-2.000065565109253,0) translate(-2.000065565109253,0) translate(-2.000065565109253,0) translate(-2.000065565109253,0) translate(-2.000065565109253,0) translate(-2.000065565109253,0) translate(-2.000065565109253,0) translate(-2.000065565109253,0) translate(-2.000065565109253,0) translate(-2.000065565109253,0) translate(-2.000065565109253,0) translate(-2.000065565109253,0) translate(-2.000065565109253,0) translate(-2.000065565109253,0) translate(-2.000065565109253,0) translate(-2.000065565109253,0) translate(-2.000065565109253,0) translate(-2.000065565109253,0) translate(-2.000065565109253,0) translate(-2.000065565109253,0) translate(-2.000065565109253,0) translate(-2.000065565109253,0) translate(-2.000065565109253,0) translate(-2.000065565109253,0) translate(-2.000065565109253,0) translate(-2.000065565109253,0) translate(-2.000065565109253,0) translate(-2.000065565109253,0) translate(-2.000065565109253,0) translate(-2.000065565109253,0) translate(-2.000065565109253,0) translate(-2.000065565109253,0) translate(-2.000065565109253,0) translate(-2.000065565109253,0) translate(-2.000065565109253,0) translate(-2.000065565109253,0) translate(-2.000065565109253,0) translate(-2.000065565109253,0) translate(-2.000065565109253,0) ">
      <filter height="408.464" width="408.462" y="275.395" x="294.317" filterUnits="userSpaceOnUse" id="Adobe_OpacityMaskFilter"/>
     </defs>
     <mask transform="translate(0,2.000065565109253) translate(0,-2.000065565109253) translate(0,-2.000065565109253) translate(0,-2.000065565109253) translate(0,-2.000065565109253) translate(0,-2.000065565109253) translate(0,-2.000065565109253) translate(-2.000065565109253,0) translate(-2.000065565109253,0) translate(-2.000065565109253,0) translate(-2.000065565109253,0) translate(-2.000065565109253,0) translate(-2.000065565109253,0) translate(-2.000065565109253,0) translate(-2.000065565109253,0) translate(-2.000065565109253,0) translate(-2.000065565109253,0) translate(-2.000065565109253,0) translate(-2.000065565109253,0) translate(-2.000065565109253,0) translate(-2.000065565109253,0) translate(-2.000065565109253,0) translate(-2.000065565109253,0) translate(-2.000065565109253,0) translate(-2.000065565109253,0) translate(-2.000065565109253,0) translate(-2.000065565109253,0) translate(-2.000065565109253,0) translate(-2.000065565109253,0) translate(-2.000065565109253,0) translate(-2.000065565109253,0) translate(-2.000065565109253,0) translate(-2.000065565109253,0) translate(-2.000065565109253,0) translate(-2.000065565109253,0) translate(-2.000065565109253,0) translate(-2.000065565109253,0) translate(-2.000065565109253,0) translate(-2.000065565109253,0) translate(-2.000065565109253,0) translate(-2.000065565109253,0) translate(-2.000065565109253,0) translate(-2.000065565109253,0) translate(-2.000065565109253,0) translate(-2.000065565109253,0) translate(-2.000065565109253,0) translate(-2.000065565109253,0) translate(-2.000065565109253,0) translate(-2.000065565109253,0) translate(-2.000065565109253,0) translate(-2.000065565109253,0) translate(-2.000065565109253,0) translate(-2.000065565109253,0) translate(-2.000065565109253,0) translate(-2.000065565109253,0) translate(-2.000065565109253,0) translate(-2.000065565109253,0) translate(-2.000065565109253,0) translate(-2.000065565109253,0) " id="SVGID_7_" height="408.464" width="408.462" y="275.395" x="294.317" maskUnits="userSpaceOnUse">
      <g id="svg_11" filter="url(#Adobe_OpacityMaskFilter)">
       <polygon id="svg_12" points="498.548,275.395 702.779,479.625 498.548,683.858        294.317,479.625      " fill="url(#SVGID_8_)" clip-path="url(#SVGID_6_)"/>
      </g>
     </mask>
     <polygon id="svg_13" points="394.5448303222656,265.3946883678436 598.7758178710938,469.62469935417175 394.5448303222656,673.857670545578 190.31381225585938,469.62469935417175 " fill="url(#SVGID_9_)" mask="url(#SVGID_7_)" clip-path="url(#SVGID_6_)"/>
    </g>
   </g>
  </g>
  <path id="svg_14" d="m279.852591,548.978672l-273.106,0l0,-148.647l247.2,0l0,-266.608c0,-10.772 8.677,-19.491 19.408,-19.491l109.453,0c10.731,0 19.407,8.719 19.407,19.491l0,292.556c0.001,67.784 -54.746,122.699 -122.362,122.699" fill="#4A8DCF"/>
  <g id="svg_15" opacity="0.2">
   <g id="svg_16">
    <defs transform="translate(0,2.000065565109253) translate(0,-2.000065565109253) translate(0,-2.000065565109253) translate(0,-2.000065565109253) translate(0,-2.000065565109253) translate(0,-2.000065565109253) translate(0,-2.000065565109253) translate(-2.000065565109253,0) translate(-2.000065565109253,0) translate(-2.000065565109253,0) translate(-2.000065565109253,0) translate(-2.000065565109253,0) translate(-2.000065565109253,0) translate(-2.000065565109253,0) translate(-2.000065565109253,0) translate(-2.000065565109253,0) translate(-2.000065565109253,0) translate(-2.000065565109253,0) translate(-2.000065565109253,0) translate(-2.000065565109253,0) translate(-2.000065565109253,0) translate(-2.000065565109253,0) translate(-2.000065565109253,0) translate(-2.000065565109253,0) translate(-2.000065565109253,0) translate(-2.000065565109253,0) translate(-2.000065565109253,0) translate(-2.000065565109253,0) translate(-2.000065565109253,0) translate(-2.000065565109253,0) translate(-2.000065565109253,0) translate(-2.000065565109253,0) translate(-2.000065565109253,0) translate(-2.000065565109253,0) translate(-2.000065565109253,0) translate(-2.000065565109253,0) translate(-2.000065565109253,0) translate(-2.000065565109253,0) translate(-2.000065565109253,0) translate(-2.000065565109253,0) translate(-2.000065565109253,0) translate(-2.000065565109253,0) translate(-2.000065565109253,0) translate(-2.000065565109253,0) translate(-2.000065565109253,0) translate(-2.000065565109253,0) translate(-2.000065565109253,0) translate(-2.000065565109253,0) translate(-2.000065565109253,0) translate(-2.000065565109253,0) translate(-2.000065565109253,0) translate(-2.000065565109253,0) translate(-2.000065565109253,0) translate(-2.000065565109253,0) translate(-2.000065565109253,0) translate(-2.000065565109253,0) translate(-2.000065565109253,0) translate(-2.000065565109253,0) translate(-2.000065565109253,0) ">
     <rect height="20.875" width="148.269" y="124.233" x="357.992" id="SVGID_10_"/>
    </defs>
    <clipPath transform="translate(0,2.000065565109253) translate(0,-2.000065565109253) translate(0,-2.000065565109253) translate(0,-2.000065565109253) translate(0,-2.000065565109253) translate(0,-2.000065565109253) translate(0,-2.000065565109253) translate(-2.000065565109253,0) translate(-2.000065565109253,0) translate(-2.000065565109253,0) translate(-2.000065565109253,0) translate(-2.000065565109253,0) translate(-2.000065565109253,0) translate(-2.000065565109253,0) translate(-2.000065565109253,0) translate(-2.000065565109253,0) translate(-2.000065565109253,0) translate(-2.000065565109253,0) translate(-2.000065565109253,0) translate(-2.000065565109253,0) translate(-2.000065565109253,0) translate(-2.000065565109253,0) translate(-2.000065565109253,0) translate(-2.000065565109253,0) translate(-2.000065565109253,0) translate(-2.000065565109253,0) translate(-2.000065565109253,0) translate(-2.000065565109253,0) translate(-2.000065565109253,0) translate(-2.000065565109253,0) translate(-2.000065565109253,0) translate(-2.000065565109253,0) translate(-2.000065565109253,0) translate(-2.000065565109253,0) translate(-2.000065565109253,0) translate(-2.000065565109253,0) translate(-2.000065565109253,0) translate(-2.000065565109253,0) translate(-2.000065565109253,0) translate(-2.000065565109253,0) translate(-2.000065565109253,0) translate(-2.000065565109253,0) translate(-2.000065565109253,0) translate(-2.000065565109253,0) translate(-2.000065565109253,0) translate(-2.000065565109253,0) translate(-2.000065565109253,0) translate(-2.000065565109253,0) translate(-2.000065565109253,0) translate(-2.000065565109253,0) translate(-2.000065565109253,0) translate(-2.000065565109253,0) translate(-2.000065565109253,0) translate(-2.000065565109253,0) translate(-2.000065565109253,0) translate(-2.000065565109253,0) translate(-2.000065565109253,0) translate(-2.000065565109253,0) translate(-2.000065565109253,0) " id="SVGID_11_">
     <use x="-104.003409" y="-10.000328" id="svg_17" xlink:href="#SVGID_10_"/>
    </clipPath>
    <path id="svg_18" d="m383.017591,114.232672l-109.829,0c-10.565,0 -19.2,8.676 -19.2,19.282l0,1.593c0,-10.606 8.635,-19.282 19.2,-19.282l109.829,0c10.563,0 19.24,8.676 19.24,19.282l0,-1.593c0,-10.606 -8.677,-19.282 -19.24,-19.282" fill="#4A8DCF" clip-path="url(#SVGID_11_)"/>
   </g>
  </g>
  <g id="svg_19">
   <g id="svg_20">
    <defs transform="translate(0,2.000065565109253) translate(0,-2.000065565109253) translate(0,-2.000065565109253) translate(0,-2.000065565109253) translate(0,-2.000065565109253) translate(0,-2.000065565109253) translate(0,-2.000065565109253) translate(-2.000065565109253,0) translate(-2.000065565109253,0) translate(-2.000065565109253,0) translate(-2.000065565109253,0) translate(-2.000065565109253,0) translate(-2.000065565109253,0) translate(-2.000065565109253,0) translate(-2.000065565109253,0) translate(-2.000065565109253,0) translate(-2.000065565109253,0) translate(-2.000065565109253,0) translate(-2.000065565109253,0) translate(-2.000065565109253,0) translate(-2.000065565109253,0) translate(-2.000065565109253,0) translate(-2.000065565109253,0) translate(-2.000065565109253,0) translate(-2.000065565109253,0) translate(-2.000065565109253,0) translate(-2.000065565109253,0) translate(-2.000065565109253,0) translate(-2.000065565109253,0) translate(-2.000065565109253,0) translate(-2.000065565109253,0) translate(-2.000065565109253,0) translate(-2.000065565109253,0) translate(-2.000065565109253,0) translate(-2.000065565109253,0) translate(-2.000065565109253,0) translate(-2.000065565109253,0) translate(-2.000065565109253,0) translate(-2.000065565109253,0) translate(-2.000065565109253,0) translate(-2.000065565109253,0) translate(-2.000065565109253,0) translate(-2.000065565109253,0) translate(-2.000065565109253,0) translate(-2.000065565109253,0) translate(-2.000065565109253,0) translate(-2.000065565109253,0) translate(-2.000065565109253,0) translate(-2.000065565109253,0) translate(-2.000065565109253,0) translate(-2.000065565109253,0) translate(-2.000065565109253,0) translate(-2.000065565109253,0) translate(-2.000065565109253,0) translate(-2.000065565109253,0) translate(-2.000065565109253,0) translate(-2.000065565109253,0) translate(-2.000065565109253,0) translate(-2.000065565109253,0) ">
     <rect height="158.499" width="250.009" y="400.355" x="225.232" id="SVGID_12_"/>
    </defs>
    <clipPath transform="translate(0,2.000065565109253) translate(0,-2.000065565109253) translate(0,-2.000065565109253) translate(0,-2.000065565109253) translate(0,-2.000065565109253) translate(0,-2.000065565109253) translate(0,-2.000065565109253) translate(-2.000065565109253,0) translate(-2.000065565109253,0) translate(-2.000065565109253,0) translate(-2.000065565109253,0) translate(-2.000065565109253,0) translate(-2.000065565109253,0) translate(-2.000065565109253,0) translate(-2.000065565109253,0) translate(-2.000065565109253,0) translate(-2.000065565109253,0) translate(-2.000065565109253,0) translate(-2.000065565109253,0) translate(-2.000065565109253,0) translate(-2.000065565109253,0) translate(-2.000065565109253,0) translate(-2.000065565109253,0) translate(-2.000065565109253,0) translate(-2.000065565109253,0) translate(-2.000065565109253,0) translate(-2.000065565109253,0) translate(-2.000065565109253,0) translate(-2.000065565109253,0) translate(-2.000065565109253,0) translate(-2.000065565109253,0) translate(-2.000065565109253,0) translate(-2.000065565109253,0) translate(-2.000065565109253,0) translate(-2.000065565109253,0) translate(-2.000065565109253,0) translate(-2.000065565109253,0) translate(-2.000065565109253,0) translate(-2.000065565109253,0) translate(-2.000065565109253,0) translate(-2.000065565109253,0) translate(-2.000065565109253,0) translate(-2.000065565109253,0) translate(-2.000065565109253,0) translate(-2.000065565109253,0) translate(-2.000065565109253,0) translate(-2.000065565109253,0) translate(-2.000065565109253,0) translate(-2.000065565109253,0) translate(-2.000065565109253,0) translate(-2.000065565109253,0) translate(-2.000065565109253,0) translate(-2.000065565109253,0) translate(-2.000065565109253,0) translate(-2.000065565109253,0) translate(-2.000065565109253,0) translate(-2.000065565109253,0) translate(-2.000065565109253,0) translate(-2.000065565109253,0) " id="SVGID_13_">
     <use x="-104.003409" y="-10.000328" id="svg_21" xlink:href="#SVGID_12_"/>
    </clipPath>
    <g id="svg_22" clip-path="url(#SVGID_13_)">
     <defs transform="translate(0,2.000065565109253) translate(0,-2.000065565109253) translate(0,-2.000065565109253) translate(0,-2.000065565109253) translate(0,-2.000065565109253) translate(0,-2.000065565109253) translate(0,-2.000065565109253) translate(-2.000065565109253,0) translate(-2.000065565109253,0) translate(-2.000065565109253,0) translate(-2.000065565109253,0) translate(-2.000065565109253,0) translate(-2.000065565109253,0) translate(-2.000065565109253,0) translate(-2.000065565109253,0) translate(-2.000065565109253,0) translate(-2.000065565109253,0) translate(-2.000065565109253,0) translate(-2.000065565109253,0) translate(-2.000065565109253,0) translate(-2.000065565109253,0) translate(-2.000065565109253,0) translate(-2.000065565109253,0) translate(-2.000065565109253,0) translate(-2.000065565109253,0) translate(-2.000065565109253,0) translate(-2.000065565109253,0) translate(-2.000065565109253,0) translate(-2.000065565109253,0) translate(-2.000065565109253,0) translate(-2.000065565109253,0) translate(-2.000065565109253,0) translate(-2.000065565109253,0) translate(-2.000065565109253,0) translate(-2.000065565109253,0) translate(-2.000065565109253,0) translate(-2.000065565109253,0) translate(-2.000065565109253,0) translate(-2.000065565109253,0) translate(-2.000065565109253,0) translate(-2.000065565109253,0) translate(-2.000065565109253,0) translate(-2.000065565109253,0) translate(-2.000065565109253,0) translate(-2.000065565109253,0) translate(-2.000065565109253,0) translate(-2.000065565109253,0) translate(-2.000065565109253,0) translate(-2.000065565109253,0) translate(-2.000065565109253,0) translate(-2.000065565109253,0) translate(-2.000065565109253,0) translate(-2.000065565109253,0) translate(-2.000065565109253,0) translate(-2.000065565109253,0) translate(-2.000065565109253,0) translate(-2.000065565109253,0) translate(-2.000065565109253,0) translate(-2.000065565109253,0) ">
      <path d="m475.241,517.897l-117.291,-117.542l0,20.918c0,74.449 -59.022,135.065 -132.718,137.619l163.319,0c34.416,-1.339 65.227,-16.891 86.69,-40.995" id="SVGID_14_"/>
     </defs>
     <clipPath transform="translate(0,2.000065565109253) translate(0,-2.000065565109253) translate(0,-2.000065565109253) translate(0,-2.000065565109253) translate(0,-2.000065565109253) translate(0,-2.000065565109253) translate(0,-2.000065565109253) translate(-2.000065565109253,0) translate(-2.000065565109253,0) translate(-2.000065565109253,0) translate(-2.000065565109253,0) translate(-2.000065565109253,0) translate(-2.000065565109253,0) translate(-2.000065565109253,0) translate(-2.000065565109253,0) translate(-2.000065565109253,0) translate(-2.000065565109253,0) translate(-2.000065565109253,0) translate(-2.000065565109253,0) translate(-2.000065565109253,0) translate(-2.000065565109253,0) translate(-2.000065565109253,0) translate(-2.000065565109253,0) translate(-2.000065565109253,0) translate(-2.000065565109253,0) translate(-2.000065565109253,0) translate(-2.000065565109253,0) translate(-2.000065565109253,0) translate(-2.000065565109253,0) translate(-2.000065565109253,0) translate(-2.000065565109253,0) translate(-2.000065565109253,0) translate(-2.000065565109253,0) translate(-2.000065565109253,0) translate(-2.000065565109253,0) translate(-2.000065565109253,0) translate(-2.000065565109253,0) translate(-2.000065565109253,0) translate(-2.000065565109253,0) translate(-2.000065565109253,0) translate(-2.000065565109253,0) translate(-2.000065565109253,0) translate(-2.000065565109253,0) translate(-2.000065565109253,0) translate(-2.000065565109253,0) translate(-2.000065565109253,0) translate(-2.000065565109253,0) translate(-2.000065565109253,0) translate(-2.000065565109253,0) translate(-2.000065565109253,0) translate(-2.000065565109253,0) translate(-2.000065565109253,0) translate(-2.000065565109253,0) translate(-2.000065565109253,0) translate(-2.000065565109253,0) translate(-2.000065565109253,0) translate(-2.000065565109253,0) translate(-2.000065565109253,0) translate(-2.000065565109253,0) " id="SVGID_15_">
      <use x="-104.003409" y="-10.000328" id="svg_23" xlink:href="#SVGID_14_"/>
     </clipPath>
     <defs transform="translate(0,2.000065565109253) translate(0,-2.000065565109253) translate(0,-2.000065565109253) translate(0,-2.000065565109253) translate(0,-2.000065565109253) translate(0,-2.000065565109253) translate(0,-2.000065565109253) translate(-2.000065565109253,0) translate(-2.000065565109253,0) translate(-2.000065565109253,0) translate(-2.000065565109253,0) translate(-2.000065565109253,0) translate(-2.000065565109253,0) translate(-2.000065565109253,0) translate(-2.000065565109253,0) translate(-2.000065565109253,0) translate(-2.000065565109253,0) translate(-2.000065565109253,0) translate(-2.000065565109253,0) translate(-2.000065565109253,0) translate(-2.000065565109253,0) translate(-2.000065565109253,0) translate(-2.000065565109253,0) translate(-2.000065565109253,0) translate(-2.000065565109253,0) translate(-2.000065565109253,0) translate(-2.000065565109253,0) translate(-2.000065565109253,0) translate(-2.000065565109253,0) translate(-2.000065565109253,0) translate(-2.000065565109253,0) translate(-2.000065565109253,0) translate(-2.000065565109253,0) translate(-2.000065565109253,0) translate(-2.000065565109253,0) translate(-2.000065565109253,0) translate(-2.000065565109253,0) translate(-2.000065565109253,0) translate(-2.000065565109253,0) translate(-2.000065565109253,0) translate(-2.000065565109253,0) translate(-2.000065565109253,0) translate(-2.000065565109253,0) translate(-2.000065565109253,0) translate(-2.000065565109253,0) translate(-2.000065565109253,0) translate(-2.000065565109253,0) translate(-2.000065565109253,0) translate(-2.000065565109253,0) translate(-2.000065565109253,0) translate(-2.000065565109253,0) translate(-2.000065565109253,0) translate(-2.000065565109253,0) translate(-2.000065565109253,0) translate(-2.000065565109253,0) translate(-2.000065565109253,0) translate(-2.000065565109253,0) translate(-2.000065565109253,0) translate(-2.000065565109253,0) ">
      <filter height="408.546" width="408.504" y="275.352" x="145.964" filterUnits="userSpaceOnUse" id="Adobe_OpacityMaskFilter_1_"/>
     </defs>
     <mask transform="translate(0,2.000065565109253) translate(0,-2.000065565109253) translate(0,-2.000065565109253) translate(0,-2.000065565109253) translate(0,-2.000065565109253) translate(0,-2.000065565109253) translate(0,-2.000065565109253) translate(-2.000065565109253,0) translate(-2.000065565109253,0) translate(-2.000065565109253,0) translate(-2.000065565109253,0) translate(-2.000065565109253,0) translate(-2.000065565109253,0) translate(-2.000065565109253,0) translate(-2.000065565109253,0) translate(-2.000065565109253,0) translate(-2.000065565109253,0) translate(-2.000065565109253,0) translate(-2.000065565109253,0) translate(-2.000065565109253,0) translate(-2.000065565109253,0) translate(-2.000065565109253,0) translate(-2.000065565109253,0) translate(-2.000065565109253,0) translate(-2.000065565109253,0) translate(-2.000065565109253,0) translate(-2.000065565109253,0) translate(-2.000065565109253,0) translate(-2.000065565109253,0) translate(-2.000065565109253,0) translate(-2.000065565109253,0) translate(-2.000065565109253,0) translate(-2.000065565109253,0) translate(-2.000065565109253,0) translate(-2.000065565109253,0) translate(-2.000065565109253,0) translate(-2.000065565109253,0) translate(-2.000065565109253,0) translate(-2.000065565109253,0) translate(-2.000065565109253,0) translate(-2.000065565109253,0) translate(-2.000065565109253,0) translate(-2.000065565109253,0) translate(-2.000065565109253,0) translate(-2.000065565109253,0) translate(-2.000065565109253,0) translate(-2.000065565109253,0) translate(-2.000065565109253,0) translate(-2.000065565109253,0) translate(-2.000065565109253,0) translate(-2.000065565109253,0) translate(-2.000065565109253,0) translate(-2.000065565109253,0) translate(-2.000065565109253,0) translate(-2.000065565109253,0) translate(-2.000065565109253,0) translate(-2.000065565109253,0) translate(-2.000065565109253,0) translate(-2.000065565109253,0) " id="SVGID_16_" height="408.546" width="408.504" y="275.352" x="145.964" maskUnits="userSpaceOnUse">
      <g id="svg_24" filter="url(#Adobe_OpacityMaskFilter_1_)">
       <polygon id="svg_25" points="350.237,275.352 554.468,479.625 350.237,683.858        145.964,479.625      " fill="url(#SVGID_17_)" clip-path="url(#SVGID_15_)"/>
      </g>
     </mask>
     <polygon id="svg_26" points="246.23382568359375,265.3516891002655 450.46484375,469.62469935417175 246.23382568359375,673.8966720104218 41.960540771484375,469.62469935417175 " fill="url(#SVGID_18_)" mask="url(#SVGID_16_)" clip-path="url(#SVGID_15_)"/>
    </g>
   </g>
  </g>
  <path id="svg_27" d="m116.534591,548.978672l-109.788,0l0,-148.647l71.516,0c15.09,0 27.374,-12.282 27.374,-27.415l0,-129.867c0,-10.814 8.719,-19.576 19.492,-19.576l109.284,0c10.773,0 19.493,8.762 19.493,19.576l0,168.224c-0.001,76.084 -61.496,137.705 -137.371,137.705" fill="#85BBE8"/>
  <g id="svg_28" opacity="0.2">
   <g id="svg_29">
    <defs transform="translate(0,2.000065565109253) translate(0,-2.000065565109253) translate(0,-2.000065565109253) translate(0,-2.000065565109253) translate(0,-2.000065565109253) translate(0,-2.000065565109253) translate(0,-2.000065565109253) translate(-2.000065565109253,0) translate(-2.000065565109253,0) translate(-2.000065565109253,0) translate(-2.000065565109253,0) translate(-2.000065565109253,0) translate(-2.000065565109253,0) translate(-2.000065565109253,0) translate(-2.000065565109253,0) translate(-2.000065565109253,0) translate(-2.000065565109253,0) translate(-2.000065565109253,0) translate(-2.000065565109253,0) translate(-2.000065565109253,0) translate(-2.000065565109253,0) translate(-2.000065565109253,0) translate(-2.000065565109253,0) translate(-2.000065565109253,0) translate(-2.000065565109253,0) translate(-2.000065565109253,0) translate(-2.000065565109253,0) translate(-2.000065565109253,0) translate(-2.000065565109253,0) translate(-2.000065565109253,0) translate(-2.000065565109253,0) translate(-2.000065565109253,0) translate(-2.000065565109253,0) translate(-2.000065565109253,0) translate(-2.000065565109253,0) translate(-2.000065565109253,0) translate(-2.000065565109253,0) translate(-2.000065565109253,0) translate(-2.000065565109253,0) translate(-2.000065565109253,0) translate(-2.000065565109253,0) translate(-2.000065565109253,0) translate(-2.000065565109253,0) translate(-2.000065565109253,0) translate(-2.000065565109253,0) translate(-2.000065565109253,0) translate(-2.000065565109253,0) translate(-2.000065565109253,0) translate(-2.000065565109253,0) translate(-2.000065565109253,0) translate(-2.000065565109253,0) translate(-2.000065565109253,0) translate(-2.000065565109253,0) translate(-2.000065565109253,0) translate(-2.000065565109253,0) translate(-2.000065565109253,0) translate(-2.000065565109253,0) translate(-2.000065565109253,0) translate(-2.000065565109253,0) ">
     <rect height="20.833" width="148.269" y="233.474" x="209.681" id="SVGID_19_"/>
    </defs>
    <clipPath transform="translate(0,2.000065565109253) translate(0,-2.000065565109253) translate(0,-2.000065565109253) translate(0,-2.000065565109253) translate(0,-2.000065565109253) translate(0,-2.000065565109253) translate(0,-2.000065565109253) translate(-2.000065565109253,0) translate(-2.000065565109253,0) translate(-2.000065565109253,0) translate(-2.000065565109253,0) translate(-2.000065565109253,0) translate(-2.000065565109253,0) translate(-2.000065565109253,0) translate(-2.000065565109253,0) translate(-2.000065565109253,0) translate(-2.000065565109253,0) translate(-2.000065565109253,0) translate(-2.000065565109253,0) translate(-2.000065565109253,0) translate(-2.000065565109253,0) translate(-2.000065565109253,0) translate(-2.000065565109253,0) translate(-2.000065565109253,0) translate(-2.000065565109253,0) translate(-2.000065565109253,0) translate(-2.000065565109253,0) translate(-2.000065565109253,0) translate(-2.000065565109253,0) translate(-2.000065565109253,0) translate(-2.000065565109253,0) translate(-2.000065565109253,0) translate(-2.000065565109253,0) translate(-2.000065565109253,0) translate(-2.000065565109253,0) translate(-2.000065565109253,0) translate(-2.000065565109253,0) translate(-2.000065565109253,0) translate(-2.000065565109253,0) translate(-2.000065565109253,0) translate(-2.000065565109253,0) translate(-2.000065565109253,0) translate(-2.000065565109253,0) translate(-2.000065565109253,0) translate(-2.000065565109253,0) translate(-2.000065565109253,0) translate(-2.000065565109253,0) translate(-2.000065565109253,0) translate(-2.000065565109253,0) translate(-2.000065565109253,0) translate(-2.000065565109253,0) translate(-2.000065565109253,0) translate(-2.000065565109253,0) translate(-2.000065565109253,0) translate(-2.000065565109253,0) translate(-2.000065565109253,0) translate(-2.000065565109253,0) translate(-2.000065565109253,0) translate(-2.000065565109253,0) " id="SVGID_20_">
     <use x="-104.003409" y="-10.000328" id="svg_30" xlink:href="#SVGID_19_"/>
    </clipPath>
    <path id="svg_31" d="m234.705591,223.473672l-109.828,0c-10.565,0 -19.2,8.678 -19.2,19.241l0,1.593c0,-10.604 8.635,-19.241 19.2,-19.241l109.828,0c10.563,0 19.241,8.637 19.241,19.241l0,-1.593c0,-10.563 -8.677,-19.241 -19.241,-19.241" fill="#85BBE8" clip-path="url(#SVGID_20_)"/>
   </g>
  </g>
 </g>
</svg>